<?xml version='1.0' encoding='UTF-8'?>
<svg width="29mm" height="29mm" version="1.1" viewBox="0 0 29 29" xmlns="http://www.w3.org/2000/svg"><path d="M4,4H5V5H4zM5,4H6V5H5zM6,4H7V5H6zM7,4H8V5H7zM8,4H9V5H8zM9,4H10V5H9zM10,4H11V5H10zM13,4H14V5H13zM14,4H15V5H14zM15,4H16V5H15zM16,4H17V5H16zM18,4H19V5H18zM19,4H20V5H19zM20,4H21V5H20zM21,4H22V5H21zM22,4H23V5H22zM23,4H24V5H23zM24,4H25V5H24zM4,5H5V6H4zM10,5H11V6H10zM12,5H13V6H12zM14,5H15V6H14zM18,5H19V6H18zM24,5H25V6H24zM4,6H5V7H4zM6,6H7V7H6zM7,6H8V7H7zM8,6H9V7H8zM10,6H11V7H10zM13,6H14V7H13zM15,6H16V7H15zM18,6H19V7H18zM20,6H21V7H20zM21,6H22V7H21zM22,6H23V7H22zM24,6H25V7H24zM4,7H5V8H4zM6,7H7V8H6zM7,7H8V8H7zM8,7H9V8H8zM10,7H11V8H10zM13,7H14V8H13zM14,7H15V8H14zM16,7H17V8H16zM18,7H19V8H18zM20,7H21V8H20zM21,7H22V8H21zM22,7H23V8H22zM24,7H25V8H24zM4,8H5V9H4zM6,8H7V9H6zM7,8H8V9H7zM8,8H9V9H8zM10,8H11V9H10zM12,8H13V9H12zM13,8H14V9H13zM14,8H15V9H14zM15,8H16V9H15zM16,8H17V9H16zM18,8H19V9H18zM20,8H21V9H20zM21,8H22V9H21zM22,8H23V9H22zM24,8H25V9H24zM4,9H5V10H4zM10,9H11V10H10zM15,9H16V10H15zM18,9H19V10H18zM24,9H25V10H24zM4,10H5V11H4zM5,10H6V11H5zM6,10H7V11H6zM7,10H8V11H7zM8,10H9V11H8zM9,10H10V11H9zM10,10H11V11H10zM12,10H13V11H12zM14,10H15V11H14zM16,10H17V11H16zM18,10H19V11H18zM19,10H20V11H19zM20,10H21V11H20zM21,10H22V11H21zM22,10H23V11H22zM23,10H24V11H23zM24,10H25V11H24zM4,12H5V13H4zM6,12H7V13H6zM8,12H9V13H8zM10,12H11V13H10zM14,12H15V13H14zM16,12H17V13H16zM20,12H21V13H20zM23,12H24V13H23zM4,13H5V14H4zM5,13H6V14H5zM6,13H7V14H6zM7,13H8V14H7zM13,13H14V14H13zM15,13H16V14H15zM17,13H18V14H17zM19,13H20V14H19zM21,13H22V14H21zM22,13H23V14H22zM24,13H25V14H24zM6,14H7V15H6zM9,14H10V15H9zM10,14H11V15H10zM15,14H16V15H15zM17,14H18V15H17zM18,14H19V15H18zM19,14H20V15H19zM23,14H24V15H23zM24,14H25V15H24zM6,15H7V16H6zM7,15H8V16H7zM8,15H9V16H8zM11,15H12V16H11zM12,15H13V16H12zM13,15H14V16H13zM15,15H16V16H15zM16,15H17V16H16zM17,15H18V16H17zM19,15H20V16H19zM20,15H21V16H20zM21,15H22V16H21zM23,15H24V16H23zM24,15H25V16H24zM4,16H5V17H4zM7,16H8V17H7zM10,16H11V17H10zM12,16H13V17H12zM15,16H16V17H15zM17,16H18V17H17zM18,16H19V17H18zM19,16H20V17H19zM21,16H22V17H21zM22,16H23V17H22zM24,16H25V17H24zM12,17H13V18H12zM13,17H14V18H13zM18,17H19V18H18zM21,17H22V18H21zM4,18H5V19H4zM5,18H6V19H5zM6,18H7V19H6zM7,18H8V19H7zM8,18H9V19H8zM9,18H10V19H9zM10,18H11V19H10zM13,18H14V19H13zM16,18H17V19H16zM20,18H21V19H20zM23,18H24V19H23zM4,19H5V20H4zM10,19H11V20H10zM18,19H19V20H18zM23,19H24V20H23zM24,19H25V20H24zM4,20H5V21H4zM6,20H7V21H6zM7,20H8V21H7zM8,20H9V21H8zM10,20H11V21H10zM12,20H13V21H12zM14,20H15V21H14zM16,20H17V21H16zM18,20H19V21H18zM20,20H21V21H20zM21,20H22V21H21zM24,20H25V21H24zM4,21H5V22H4zM6,21H7V22H6zM7,21H8V22H7zM8,21H9V22H8zM10,21H11V22H10zM13,21H14V22H13zM14,21H15V22H14zM15,21H16V22H15zM17,21H18V22H17zM19,21H20V22H19zM21,21H22V22H21zM23,21H24V22H23zM4,22H5V23H4zM6,22H7V23H6zM7,22H8V23H7zM8,22H9V23H8zM10,22H11V23H10zM12,22H13V23H12zM14,22H15V23H14zM15,22H16V23H15zM17,22H18V23H17zM18,22H19V23H18zM19,22H20V23H19zM22,22H23V23H22zM24,22H25V23H24zM4,23H5V24H4zM10,23H11V24H10zM15,23H16V24H15zM16,23H17V24H16zM17,23H18V24H17zM19,23H20V24H19zM20,23H21V24H20zM21,23H22V24H21zM23,23H24V24H23zM24,23H25V24H24zM4,24H5V25H4zM5,24H6V25H5zM6,24H7V25H6zM7,24H8V25H7zM8,24H9V25H8zM9,24H10V25H9zM10,24H11V25H10zM12,24H13V25H12zM13,24H14V25H13zM14,24H15V25H14zM15,24H16V25H15zM17,24H18V25H17zM18,24H19V25H18zM19,24H20V25H19zM22,24H23V25H22zM24,24H25V25H24z" id="qr-path" fill="#000000" fill-opacity="1" fill-rule="nonzero" stroke="none" /></svg>